<svg xmlns="http://www.w3.org/2000/svg" viewBox="0 0 140 152"><g transform="translate(70,84) scale(0.8)"><ellipse cx="0" cy="53" rx="33" ry="6" fill="#000000" opacity="0.07"/><ellipse cx="-13" cy="47" rx="9" ry="6" fill="#62B98A"/><ellipse cx="13" cy="47" rx="9" ry="6" fill="#62B98A"/><clipPath id="bx1025"><path d="M -36,46 L -36,-14 L 0,-44 L 36,-14 L 36,46 Z"/></clipPath><path d="M -36,46 L -36,-14 L 0,-44 L 36,-14 L 36,46 Z" fill="#84CDA3"/><g clip-path="url(#bx1025)"><ellipse cx="0" cy="64" rx="48" ry="38" fill="#62B98A"/><path d="M 0,-44 L -36,-14 L 6,-14 Z" fill="#9CDAB6"/><path d="M 0,-44 L 36,-14 L 6,-14 Z" fill="#74C49A"/></g><circle cx="0" cy="-48" r="4.6" fill="#F5C24B"/><circle cx="-1.4" cy="-49.4" r="1.6" fill="#FFE08A"/><ellipse cx="-20" cy="18" rx="7" ry="4.5" fill="#F4A29A" opacity="0.7"/><ellipse cx="20" cy="18" rx="7" ry="4.5" fill="#F4A29A" opacity="0.7"/><path d="M -17,13 Q -12,7 -7,13" fill="none" stroke="#2E4A3C" stroke-width="3" stroke-linecap="round"/><path d="M 7,13 Q 12,7 17,13" fill="none" stroke="#2E4A3C" stroke-width="3" stroke-linecap="round"/><path d="M -9,19 Q 0,29 9,19 Z" fill="#2E4A3C"/><path d="M -28,10 Q -44,-4 -48,-24" stroke="#84CDA3" stroke-width="11" fill="none" stroke-linecap="round"/><circle cx="-49" cy="-26" r="6.5" fill="#84CDA3"/><path d="M 28,10 Q 44,-4 48,-24" stroke="#84CDA3" stroke-width="11" fill="none" stroke-linecap="round"/><g transform="translate(52,-30) rotate(24) scale(1.0)"><rect x="-3.5" y="-10" width="7" height="30" rx="3.5" fill="#B3BBC0"/><rect x="0.6" y="-10" width="2.9" height="30" rx="1.4" fill="#9AA8AE" opacity="0.7"/><circle cx="0" cy="22" r="6.5" fill="#B3BBC0"/><circle cx="0" cy="22" r="2.6" fill="#7E8990"/><path d="M -7.5,-9 L -9,-19 Q -9,-25 -4.5,-26 L -3,-21 L -2.6,-17 Q 0,-15 2.6,-17 L 3,-21 L 4.5,-26 Q 9,-25 9,-19 L 7.5,-9 Z" fill="#B3BBC0"/><path d="M 0.4,-16 L 3,-21 L 4.5,-26 Q 9,-25 9,-19 L 7.5,-9 L 3,-9 Z" fill="#9AA8AE" opacity="0.6"/></g><circle cx="49" cy="-26" r="6.5" fill="#84CDA3"/><path d="M -52,-9.0 l1.6,4.0 l4.0,1.6 l-4.0,1.6 l-1.6,4.0 l-1.6,-4.0 l-4.0,-1.6 l4.0,-1.6 Z" fill="#F5C24B"/><path d="M 54,-3.6000000000000005 l1.2800000000000002,3.2 l3.2,1.2800000000000002 l-3.2,1.2800000000000002 l-1.2800000000000002,3.2 l-1.2800000000000002,-3.2 l-3.2,-1.2800000000000002 l3.2,-1.2800000000000002 Z" fill="#F5C24B"/><path d="M 2,-72.3 l1.4400000000000002,3.6 l3.6,1.4400000000000002 l-3.6,1.4400000000000002 l-1.4400000000000002,3.6 l-1.4400000000000002,-3.6 l-3.6,-1.4400000000000002 l3.6,-1.4400000000000002 Z" fill="#F5C24B"/><circle cx="-30" cy="-40" r="3" fill="#84CDA3"/><rect x="34" y="-46" width="6" height="6" rx="1.5" fill="#F4A29A" transform="rotate(20 37 -43)"/><circle cx="20" cy="-58" r="2.6" fill="#F5C24B"/></g></svg>