<svg xmlns="http://www.w3.org/2000/svg" viewBox="0 0 140 152"><g transform="translate(70,84) scale(0.8)"><ellipse cx="0" cy="53" rx="33" ry="6" fill="#000000" opacity="0.07"/><ellipse cx="-13" cy="47" rx="9" ry="6" fill="#62B98A"/><ellipse cx="13" cy="47" rx="9" ry="6" fill="#62B98A"/><clipPath id="bx1024"><path d="M -36,46 L -36,-14 L 0,-44 L 36,-14 L 36,46 Z"/></clipPath><path d="M -36,46 L -36,-14 L 0,-44 L 36,-14 L 36,46 Z" fill="#84CDA3"/><g clip-path="url(#bx1024)"><ellipse cx="0" cy="64" rx="48" ry="38" fill="#62B98A"/><path d="M 0,-44 L -36,-14 L 6,-14 Z" fill="#9CDAB6"/><path d="M 0,-44 L 36,-14 L 6,-14 Z" fill="#74C49A"/></g><circle cx="0" cy="-48" r="4.6" fill="#F5C24B"/><circle cx="-1.4" cy="-49.4" r="1.6" fill="#FFE08A"/><ellipse cx="-20" cy="18" rx="7" ry="4.5" fill="#F4A29A" opacity="0.7"/><ellipse cx="20" cy="18" rx="7" ry="4.5" fill="#F4A29A" opacity="0.7"/><circle cx="-12" cy="12" r="4.6" fill="#2E4A3C"/><circle cx="12" cy="12" r="4.6" fill="#2E4A3C"/><circle cx="-10" cy="10" r="1.6" fill="#fff"/><circle cx="14" cy="10" r="1.6" fill="#fff"/><path d="M -9,19 Q 0,29 9,19 Z" fill="#2E4A3C"/><path d="M -24,16 Q -38,14 -44,8 Q -47,-4 -40,-15" stroke="#84CDA3" stroke-width="11" fill="none" stroke-linecap="round"/><ellipse cx="-34" cy="3" rx="9" ry="7.5" fill="#9CDAB6"/><ellipse cx="-32" cy="0.5" rx="3.5" ry="2.5" fill="#B6E6CB" opacity="0.8"/><circle cx="-40" cy="-15" r="6.5" fill="#84CDA3"/><path d="M 24,16 Q 38,14 44,8 Q 47,-4 40,-15" stroke="#84CDA3" stroke-width="11" fill="none" stroke-linecap="round"/><ellipse cx="34" cy="3" rx="9" ry="7.5" fill="#9CDAB6"/><ellipse cx="32" cy="0.5" rx="3.5" ry="2.5" fill="#B6E6CB" opacity="0.8"/><circle cx="40" cy="-15" r="6.5" fill="#84CDA3"/><path d="M 50,-24.65 l1.52,3.8 l3.8,1.52 l-3.8,1.52 l-1.52,3.8 l-1.52,-3.8 l-3.8,-1.52 l3.8,-1.52 Z" fill="#F5C24B"/><path d="M -50,-23.6 l1.2800000000000002,3.2 l3.2,1.2800000000000002 l-3.2,1.2800000000000002 l-1.2800000000000002,3.2 l-1.2800000000000002,-3.2 l-3.2,-1.2800000000000002 l3.2,-1.2800000000000002 Z" fill="#F5C24B"/></g></svg>