<svg xmlns="http://www.w3.org/2000/svg" viewBox="0 0 140 152"><g transform="translate(70,84) scale(0.8)"><ellipse cx="0" cy="53" rx="33" ry="6" fill="#000000" opacity="0.07"/><ellipse cx="-13" cy="47" rx="9" ry="6" fill="#62B98A"/><ellipse cx="13" cy="47" rx="9" ry="6" fill="#62B98A"/><clipPath id="bx1020"><path d="M -36,46 L -36,-14 L 0,-44 L 36,-14 L 36,46 Z"/></clipPath><path d="M -36,46 L -36,-14 L 0,-44 L 36,-14 L 36,46 Z" fill="#84CDA3"/><g clip-path="url(#bx1020)"><ellipse cx="0" cy="64" rx="48" ry="38" fill="#62B98A"/><path d="M 0,-44 L -36,-14 L 6,-14 Z" fill="#9CDAB6"/><path d="M 0,-44 L 36,-14 L 6,-14 Z" fill="#74C49A"/></g><circle cx="0" cy="-48" r="4.6" fill="#F5C24B"/><circle cx="-1.4" cy="-49.4" r="1.6" fill="#FFE08A"/><ellipse cx="-20" cy="18" rx="7" ry="4.5" fill="#F4A29A" opacity="0.7"/><ellipse cx="20" cy="18" rx="7" ry="4.5" fill="#F4A29A" opacity="0.7"/><circle cx="-12" cy="12" r="4.6" fill="#2E4A3C"/><circle cx="12" cy="12" r="4.6" fill="#2E4A3C"/><circle cx="-10" cy="10" r="1.6" fill="#fff"/><circle cx="14" cy="10" r="1.6" fill="#fff"/><path d="M -8,20 Q 0,27 8,20" fill="none" stroke="#2E4A3C" stroke-width="3" stroke-linecap="round"/><path d="M -30,18 Q -42,22 -45,12" stroke="#84CDA3" stroke-width="11" fill="none" stroke-linecap="round"/><path d="M 30,18 Q 41,13 45,5" stroke="#84CDA3" stroke-width="11" fill="none" stroke-linecap="round"/><g transform="translate(46,10) rotate(6) scale(0.8)"><path d="M -3.6,-44 L 3.6,-44 L 4.4,13 L -3,15 Z" fill="#C9965A"/><path d="M 1.2,-44 L 3.6,-44 L 4.4,13 L 2,14 Z" fill="#B07F45"/><path d="M -24,-50 L -13,-58 L 16,-56 L 24,-50 L 15,-43 L -19,-44 Z" fill="#B3BBC0"/><path d="M -24,-50 L -13,-58 L 16,-56 L 24,-50 L 14,-50 L -18,-50 Z" fill="#DCE2E5"/><path d="M -24,-50 L -19,-52 L -19,-45 L -23,-46 Z" fill="#9AA8AE"/><path d="M -9,-54 L -3,-53 L -4,-48 L -10,-49 Z" fill="#FFFFFF" opacity="0.45"/></g><circle cx="46" cy="8" r="6.5" fill="#84CDA3"/></g></svg>