<svg xmlns="http://www.w3.org/2000/svg" viewBox="0 0 140 152"><g transform="translate(70,84) scale(0.8)"><ellipse cx="0" cy="53" rx="33" ry="6" fill="#000000" opacity="0.07"/><ellipse cx="-13" cy="47" rx="9" ry="6" fill="#62B98A"/><ellipse cx="13" cy="47" rx="9" ry="6" fill="#62B98A"/><clipPath id="bx1032"><path d="M -36,46 L -36,-14 L 0,-44 L 36,-14 L 36,46 Z"/></clipPath><path d="M -36,46 L -36,-14 L 0,-44 L 36,-14 L 36,46 Z" fill="#84CDA3"/><g clip-path="url(#bx1032)"><ellipse cx="0" cy="64" rx="48" ry="38" fill="#62B98A"/><path d="M 0,-44 L -36,-14 L 6,-14 Z" fill="#9CDAB6"/><path d="M 0,-44 L 36,-14 L 6,-14 Z" fill="#74C49A"/></g><circle cx="0" cy="-48" r="4.6" fill="#F5C24B"/><circle cx="-1.4" cy="-49.4" r="1.6" fill="#FFE08A"/><ellipse cx="-20" cy="18" rx="7" ry="4.5" fill="#F4A29A" opacity="0.7"/><ellipse cx="20" cy="18" rx="7" ry="4.5" fill="#F4A29A" opacity="0.7"/><path d="M -16,12 Q -12,8 -8,12" fill="none" stroke="#2E4A3C" stroke-width="3" stroke-linecap="round"/><path d="M 8,12 Q 12,8 16,12" fill="none" stroke="#2E4A3C" stroke-width="3" stroke-linecap="round"/><ellipse cx="0" cy="22" rx="3" ry="3.5" fill="#2E4A3C" opacity="0.8"/><path d="M -30,20 Q -38,24 -41,19" stroke="#84CDA3" stroke-width="11" fill="none" stroke-linecap="round"/><circle cx="-42" cy="20" r="6.5" fill="#84CDA3"/><path d="M 30,20 Q 38,24 41,19" stroke="#84CDA3" stroke-width="11" fill="none" stroke-linecap="round"/><circle cx="42" cy="20" r="6.5" fill="#84CDA3"/><g transform="translate(-40,18) rotate(-22) scale(0.9)"><rect x="-3.5" y="-10" width="7" height="30" rx="3.5" fill="#B3BBC0"/><rect x="0.6" y="-10" width="2.9" height="30" rx="1.4" fill="#9AA8AE" opacity="0.7"/><circle cx="0" cy="22" r="6.5" fill="#B3BBC0"/><circle cx="0" cy="22" r="2.6" fill="#7E8990"/><path d="M -7.5,-9 L -9,-19 Q -9,-25 -4.5,-26 L -3,-21 L -2.6,-17 Q 0,-15 2.6,-17 L 3,-21 L 4.5,-26 Q 9,-25 9,-19 L 7.5,-9 Z" fill="#B3BBC0"/><path d="M 0.4,-16 L 3,-21 L 4.5,-26 Q 9,-25 9,-19 L 7.5,-9 L 3,-9 Z" fill="#9AA8AE" opacity="0.6"/></g><text x="30" y="-26" font-size="13" font-weight="700" fill="#7FB79C">z</text><text x="41" y="-38" font-size="17" font-weight="700" fill="#7FB79C">z</text><text x="54" y="-52" font-size="21" font-weight="700" fill="#7FB79C">Z</text></g></svg>