<svg xmlns="http://www.w3.org/2000/svg" viewBox="0 0 140 152"><g transform="translate(70,84) scale(0.8)"><ellipse cx="0" cy="53" rx="33" ry="6" fill="#000000" opacity="0.07"/><ellipse cx="-13" cy="47" rx="9" ry="6" fill="#62B98A"/><ellipse cx="13" cy="47" rx="9" ry="6" fill="#62B98A"/><clipPath id="bx1031"><path d="M -36,46 L -36,-14 L 0,-44 L 36,-14 L 36,46 Z"/></clipPath><path d="M -36,46 L -36,-14 L 0,-44 L 36,-14 L 36,46 Z" fill="#84CDA3"/><g clip-path="url(#bx1031)"><ellipse cx="0" cy="64" rx="48" ry="38" fill="#62B98A"/><path d="M 0,-44 L -36,-14 L 6,-14 Z" fill="#9CDAB6"/><path d="M 0,-44 L 36,-14 L 6,-14 Z" fill="#74C49A"/></g><circle cx="0" cy="-48" r="4.6" fill="#F5C24B"/><circle cx="-1.4" cy="-49.4" r="1.6" fill="#FFE08A"/><ellipse cx="-20" cy="18" rx="7" ry="4.5" fill="#F4A29A" opacity="0.7"/><ellipse cx="20" cy="18" rx="7" ry="4.5" fill="#F4A29A" opacity="0.7"/><path d="M -17,13 Q -12,7 -7,13" fill="none" stroke="#2E4A3C" stroke-width="3" stroke-linecap="round"/><path d="M 7,13 Q 12,7 17,13" fill="none" stroke="#2E4A3C" stroke-width="3" stroke-linecap="round"/><path d="M -9,19 Q 0,29 9,19 Z" fill="#2E4A3C"/><path d="M -30,14 Q -47,16 -45,25 Q -44,31 -33,30" stroke="#84CDA3" stroke-width="11" fill="none" stroke-linecap="round"/><circle cx="-33" cy="30" r="6.5" fill="#84CDA3"/><path d="M 30,14 Q 47,16 45,25 Q 44,31 33,30" stroke="#84CDA3" stroke-width="11" fill="none" stroke-linecap="round"/><circle cx="33" cy="30" r="6.5" fill="#84CDA3"/></g></svg>