<svg xmlns="http://www.w3.org/2000/svg" viewBox="0 0 140 152"><g transform="translate(70,84) scale(0.8)"><g transform="scale(1.7)"><rect x="-3.5" y="-10" width="7" height="30" rx="3.5" fill="#B3BBC0"/><rect x="0.6" y="-10" width="2.9" height="30" rx="1.4" fill="#9AA8AE" opacity="0.7"/><circle cx="0" cy="22" r="6.5" fill="#B3BBC0"/><circle cx="0" cy="22" r="2.6" fill="#7E8990"/><path d="M -7.5,-9 L -9,-19 Q -9,-25 -4.5,-26 L -3,-21 L -2.6,-17 Q 0,-15 2.6,-17 L 3,-21 L 4.5,-26 Q 9,-25 9,-19 L 7.5,-9 Z" fill="#B3BBC0"/><path d="M 0.4,-16 L 3,-21 L 4.5,-26 Q 9,-25 9,-19 L 7.5,-9 L 3,-9 Z" fill="#9AA8AE" opacity="0.6"/></g></g></svg>